{
  "accessors": [
    {
      "bufferView": 2,
      "componentType": 5126,
      "count": 6344,
      "max": [
        0.42821675539016724,
        1.081728458404541,
        0.31163445115089417
      ],
      "min": [
        -0.42821675539016724,
        0.22529506683349609,
        -0.38616156578063965
      ],
      "type": "VEC3"
    },
    {
      "bufferView": 2,
      "byteOffset": 76128,
      "componentType": 5126,
      "count": 6344,
      "max": [
        0.97794938087463379,
        0.97794938087463379,
        0.99989116191864014
      ],
      "min": [
        -0.97794938087463379,
        -0.97794938087463379,
        -0.99972677230834961
      ],
      "type": "VEC3"
    },
    {
      "bufferView": 3,
      "componentType": 5126,
      "count": 6344,
      "max": [
        0.97475427389144897,
        0.97475361824035645,
        0.99968719482421875,
        1
      ],
      "min": [
        -0.97475296258926392,
        -0.97475409507751465,
        -0.99969106912612915,
        1
      ],
      "type": "VEC4"
    },
    {
      "bufferView": 1,
      "componentType": 5126,
      "count": 6344,
      "max": [
        2.014148473739624,
        2.0082740783691406
      ],
      "min": [
        -0.95528388023376465,
        -1.0182468891143799
      ],
      "type": "VEC2"
    },
    {
      "bufferView": 0,
      "componentType": 5125,
      "count": 26592,
      "max": [
        6343
      ],
      "min": [
        0
      ],
      "type": "SCALAR"
    },
    {
      "bufferView": 2,
      "byteOffset": 152256,
      "componentType": 5126,
      "count": 11979,
      "max": [
        0.43586194515228271,
        0.82610130310058594,
        0.3067326545715332
      ],
      "min": [
        -0.43586158752441406,
        -0.0012270990991964936,
        -0.43586194515228271
      ],
      "type": "VEC3"
    },
    {
      "bufferView": 2,
      "byteOffset": 296004,
      "componentType": 5126,
      "count": 11979,
      "max": [
        1,
        1,
        1
      ],
      "min": [
        -1,
        -1,
        -1
      ],
      "type": "VEC3"
    },
    {
      "bufferView": 3,
      "byteOffset": 101504,
      "componentType": 5126,
      "count": 11979,
      "max": [
        1,
        0.99999970197677612,
        0.99693155288696289,
        1
      ],
      "min": [
        -1,
        -0.99999994039535522,
        -0.99693113565444946,
        1
      ],
      "type": "VEC4"
    },
    {
      "bufferView": 1,
      "byteOffset": 50752,
      "componentType": 5126,
      "count": 11979,
      "max": [
        0.96398043632507324,
        0.99130338430404663
      ],
      "min": [
        0.028487956151366234,
        0.0085432529449462891
      ],
      "type": "VEC2"
    },
    {
      "bufferView": 0,
      "byteOffset": 106368,
      "componentType": 5125,
      "count": 63792,
      "max": [
        11978
      ],
      "min": [
        0
      ],
      "type": "SCALAR"
    }
  ],
  "asset": {
    "extras": {
      "author": "UX3D GmbH (https://sketchfab.com/nopper)",
      "license": "CC-BY-NC-4.0 (http://creativecommons.org/licenses/by-nc/4.0/)",
      "source": "https://sketchfab.com/models/78a892c135d24f43b8da8a20320c7357",
      "title": "UX3D Material Probe"
    },
    "generator": "Sketchfab-3.29.4",
    "version": "2.0"
  },
  "bufferViews": [
    {
      "buffer": 0,
      "byteLength": 361536,
      "byteOffset": 0,
      "name": "floatBufferViews",
      "target": 34963
    },
    {
      "buffer": 0,
      "byteLength": 146584,
      "byteOffset": 361536,
      "byteStride": 8,
      "name": "floatBufferViews",
      "target": 34962
    },
    {
      "buffer": 0,
      "byteLength": 439752,
      "byteOffset": 508120,
      "byteStride": 12,
      "name": "floatBufferViews",
      "target": 34962
    },
    {
      "buffer": 0,
      "byteLength": 293168,
      "byteOffset": 947872,
      "byteStride": 16,
      "name": "floatBufferViews",
      "target": 34962
    }
  ],
  "buffers": [
    {
      "byteLength": 1241040,
      "uri": "scene.bin"
    }
  ],
  "images": [
    {
      "uri": "textures/Outer_normal.png"
    },
    {
      "uri": "textures/Outer_metallicRoughness.png"
    },
    {
      "uri": "textures/Outer_baseColor.png"
    },
    {
      "uri": "textures/Inner_normal.png"
    },
    {
      "uri": "textures/Inner_baseColor.png"
    },
    {
      "uri": "textures/Inner_metallicRoughness.png"
    }
  ],
  "materials": [
    {
      "doubleSided": false,
      "emissiveFactor": [
        0,
        0,
        0
      ],
      "name": "Outer",
      "normalTexture": {
        "index": 0,
        "scale": 1,
        "texCoord": 0
      },
      "occlusionTexture": {
        "index": 1,
        "strength": 1,
        "texCoord": 0
      },
      "pbrMetallicRoughness": {
        "baseColorFactor": [
          1,
          1,
          1,
          1
        ],
        "baseColorTexture": {
          "index": 2,
          "texCoord": 0
        },
        "metallicFactor": 1,
        "metallicRoughnessTexture": {
          "index": 1,
          "texCoord": 0
        },
        "roughnessFactor": 1
      }
    },
    {
      "doubleSided": false,
      "emissiveFactor": [
        0,
        0,
        0
      ],
      "name": "Inner",
      "normalTexture": {
        "index": 3,
        "scale": 1,
        "texCoord": 0
      },
      "pbrMetallicRoughness": {
        "baseColorFactor": [
          1,
          1,
          1,
          1
        ],
        "baseColorTexture": {
          "index": 4,
          "texCoord": 0
        },
        "metallicFactor": 1,
        "metallicRoughnessTexture": {
          "index": 5,
          "texCoord": 0
        },
        "roughnessFactor": 1
      }
    }
  ],
  "meshes": [
    {
      "primitives": [
        {
          "attributes": {
            "NORMAL": 1,
            "POSITION": 0,
            "TANGENT": 2,
            "TEXCOORD_0": 3
          },
          "indices": 4,
          "material": 0,
          "mode": 4
        }
      ]
    },
    {
      "primitives": [
        {
          "attributes": {
            "NORMAL": 6,
            "POSITION": 5,
            "TANGENT": 7,
            "TEXCOORD_0": 8
          },
          "indices": 9,
          "material": 1,
          "mode": 4
        }
      ]
    }
  ],
  "nodes": [
    {
      "children": [
        1
      ],
      "name": "RootNode (gltf orientation matrix)",
      "rotation": [
        -0.70710678118654746,
        -0,
        -0,
        0.70710678118654757
      ]
    },
    {
      "children": [
        2
      ],
      "name": "RootNode (model correction matrix)"
    },
    {
      "children": [
        3
      ],
      "name": "root"
    },
    {
      "children": [
        4
      ],
      "matrix": [
        1,
        0,
        0,
        0,
        0,
        2.2204460492503131e-16,
        1,
        0,
        0,
        -1,
        2.2204460492503131e-16,
        0,
        0,
        0,
        0,
        1
      ],
      "name": "GLTF_SceneRootNode"
    },
    {
      "children": [
        5,
        6
      ],
      "name": "MaterialProbe_3"
    },
    {
      "mesh": 0,
      "name": ""
    },
    {
      "mesh": 1,
      "name": ""
    }
  ],
  "samplers": [
    {
      "magFilter": 9728,
      "minFilter": 9986,
      "wrapS": 10497,
      "wrapT": 10497
    }
  ],
  "scene": 0,
  "scenes": [
    {
      "name": "OSG_Scene",
      "nodes": [
        0
      ]
    }
  ],
  "textures": [
    {
      "sampler": 0,
      "source": 0
    },
    {
      "sampler": 0,
      "source": 1
    },
    {
      "sampler": 0,
      "source": 2
    },
    {
      "sampler": 0,
      "source": 3
    },
    {
      "sampler": 0,
      "source": 4
    },
    {
      "sampler": 0,
      "source": 5
    }
  ]
}

